# xmcd
#
# Track frame offsets: 
#        150
#        3060
#        19110
#        33885
#        48852
#        63965
#        78270
#        98350
#        112345
#        134737
#        153760
#        179507
#        193542
#
# Disc length: 2821 seconds
#
# Revision: 1
# Processed by: cddbd v1.5.2PL0 Copyright (c) Steve Scherf et al.
# Submitted via: ExactAudioCopy v0.99pb3
#
DISCID=970b030d
DTITLE=Various Artist - The Gram Parson's Notebook - The Last Whippoorwill
DYEAR=2000
DGENRE=Country
TTITLE0=Hickory Wind Intro - Carl Jackson with Ricky Skaggs and Leslie S
TTITLE0=atcher
TTITLE1=L.A. Customs Blues - Carl Jackson with Marty Stuart,Ricky Skag
TTITLE1=gs and Barry Tashain
TTITLE2=The Last Whippoorwill - Lona Heins with Rebecca Lynn Howard
TTITLE3=Blurry Slurry Night - Mike Ward with Leslie Satcher
TTITLE4=Cash On The Barrellhead - Carl Jackson
TTITLE5=Barefootin' - Mike Ward with James Burton and the Elvis Band
TTITLE6=Jesus Is More Than A Name - Eddie Cunningham
TTITLE7=The Button - Eddie Dunbar
TTITLE8=Blessing For Being - Jim Lauderdale
TTITLE9=Dead Flowers - Mike Ward
TTITLE10=A Song For You - The Woody's
TTITLE11=No One Knows I'm Lonesome - Condle, Jackson and Salley
TTITLE12=Hickory Wind - Carl Jackson with Ricky Skaggs and Leslie Satche
TTITLE12=r
EXTD=
EXTT0=
EXTT1=
EXTT2=
EXTT3=
EXTT4=
EXTT5=
EXTT6=
EXTT7=
EXTT8=
EXTT9=
EXTT10=
EXTT11=
EXTT12=
PLAYORDER=
